<?xml version="1.0" standalone="no"?><!-- Generator: Gravit.io --><svg xmlns="http://www.w3.org/2000/svg" xmlns:xlink="http://www.w3.org/1999/xlink" style="isolation:isolate" viewBox="32 -58 96 96" width="96" height="96"><g id="ic_local_cafe_black_48px"><path d=" M 32 -10 L 80 -10 L 80 38 L 32 38 L 32 -10 Z " fill="none"/><path d=" M 72 -4 L 40 -4 L 40 16 C 40 20.42 43.58 24 48 24 L 60 24 C 64.42 24 68 20.42 68 16 L 68 10 L 72 10 C 74.22 10 76 8.22 76 6 L 76 0 C 76 -2.22 74.22 -4 72 -4 Z  M 72 6 L 68 6 L 68 0 L 72 0 L 72 6 Z  M 36 32 L 72 32 L 72 28 L 36 28 L 36 32 Z " /></g><g id="ic_local_dining_black_48px"><path d=" M 80 -58 L 128 -58 L 128 -10 L 80 -10 L 80 -58 Z " fill="none"/><path d=" M 96.2 -31.32 L 101.86 -36.98 L 87.82 -51 C 84.7 -47.88 84.7 -42.82 87.82 -39.68 L 96.2 -31.32 Z  M 109.76 -34.94 C 112.82 -33.52 117.12 -34.52 120.3 -37.7 C 124.12 -41.52 124.86 -47 121.92 -49.94 C 119 -52.86 113.52 -52.14 109.68 -48.32 C 106.5 -45.14 105.5 -40.84 106.92 -37.78 L 87.4 -18.26 L 90.22 -15.44 L 104 -29.18 L 117.76 -15.42 L 120.58 -18.24 L 106.82 -32 L 109.76 -34.94 Z " /></g><g id="ic_local_see_black_48px"><path d=" M 49.6 -34 C 49.6 -37.532 52.468 -40.4 56 -40.4 C 59.532 -40.4 62.4 -37.532 62.4 -34 C 62.4 -30.468 59.532 -27.6 56 -27.6 C 52.468 -27.6 49.6 -30.468 49.6 -34 Z " /><path d=" M 50 -54 L 46.34 -50 L 40 -50 C 37.8 -50 36 -48.2 36 -46 L 36 -22 C 36 -19.8 37.8 -18 40 -18 L 72 -18 C 74.2 -18 76 -19.8 76 -22 L 76 -46 C 76 -48.2 74.2 -50 72 -50 L 65.66 -50 L 62 -54 L 50 -54 Z  M 56 -24 C 50.48 -24 46 -28.48 46 -34 C 46 -39.52 50.48 -44 56 -44 C 61.52 -44 66 -39.52 66 -34 C 66 -28.48 61.52 -24 56 -24 Z " /><path d=" M 32 -58 L 80 -58 L 80 -10 L 32 -10 L 32 -58 Z " fill="none"/></g><g id="ic_map_black_48px"><path d=" M 121 -4 L 120.68 -3.94 L 110 0.2 L 98 -4 L 86.72 -0.2 C 86.3 -0.06 86 0.3 86 0.76 L 86 31 C 86 31.56 86.44 32 87 32 L 87.32 31.94 L 98 27.8 L 110 32 L 121.28 28.2 C 121.7 28.06 122 27.7 122 27.24 L 122 -3 C 122 -3.56 121.56 -4 121 -4 Z  M 110 28 L 98 23.78 L 98 0 L 110 4.22 L 110 28 Z " /><path d=" M 80 -10 L 128 -10 L 128 38 L 80 38 L 80 -10 Z " fill="none"/></g></svg>