<?xml version="1.0" encoding="UTF-8" standalone="no"?>
<!-- Generator: Adobe Illustrator 19.2.0, SVG Export Plug-In . SVG Version: 6.00 Build 0)  -->

<svg
   xmlns:dc="http://purl.org/dc/elements/1.1/"
   xmlns:cc="http://creativecommons.org/ns#"
   xmlns:rdf="http://www.w3.org/1999/02/22-rdf-syntax-ns#"
   xmlns:svg="http://www.w3.org/2000/svg"
   xmlns="http://www.w3.org/2000/svg"
   xmlns:sodipodi="http://sodipodi.sourceforge.net/DTD/sodipodi-0.dtd"
   xmlns:inkscape="http://www.inkscape.org/namespaces/inkscape"
   version="1.1"
   id="Layer_1"
   x="0px"
   y="0px"
   viewBox="0 0 155.90154 41.099998"
   xml:space="preserve"
   sodipodi:docname="garmin.svg"
   width="155.90154"
   height="41.099998"
   inkscape:version="0.92.2 (5c3e80d, 2017-08-06)"><metadata
     id="metadata148"><rdf:RDF><cc:Work
         rdf:about=""><dc:format>image/svg+xml</dc:format><dc:type
           rdf:resource="http://purl.org/dc/dcmitype/StillImage" /></cc:Work></rdf:RDF></metadata><defs
     id="defs146" /><sodipodi:namedview
     pagecolor="#ffffff"
     bordercolor="#666666"
     borderopacity="1"
     objecttolerance="10"
     gridtolerance="10"
     guidetolerance="10"
     inkscape:pageopacity="0"
     inkscape:pageshadow="2"
     inkscape:window-width="2736"
     inkscape:window-height="1730"
     id="namedview144"
     showgrid="false"
     inkscape:zoom="10.388"
     inkscape:cx="77.701535"
     inkscape:cy="20"
     inkscape:window-x="-11"
     inkscape:window-y="-11"
     inkscape:window-maximized="1"
     inkscape:current-layer="Layer_1" /><style
     type="text/css"
     id="style89">
	.st0{fill:#114470;}
</style><g
     id="g141"
     transform="translate(-47.298465,-28.9)"><g
       id="g107"><path
         class="st0"
         d="m 74.3,42.3 h -2.9 c 0.9,-5.1 5.5,-8.9 10.8,-8.9 5.3,0 9.8,3.9 10.6,8.9 h -2.9 c -0.8,-3.5 -4,-6.2 -7.8,-6.2 -3.7,0 -6.9,2.7 -7.8,6.2 z M 89.9,46 c -0.9,3.5 -4.1,6.2 -8,6.2 -3.8,0 -6.9,-2.7 -7.7,-6.2 h -2.9 c 0.9,5.1 5.2,8.9 10.5,8.9 5.4,0 9.9,-3.8 10.9,-8.9 0.1,0 -2.8,0 -2.8,0 z"
         id="path91"
         inkscape:connector-curvature="0"
         style="fill:#114470" /><g
         id="g105"><path
           class="st0"
           d="m 188.9,48.3 c -0.9,2.3 -3.4,3.8 -6.9,3.8 -4.4,0 -8,-3.6 -8,-8 0,-4.4 3.6,-8 8,-8 3.4,0 5.9,1.5 6.9,3.7 0.2,0.5 0.2,0.7 0.8,0.7 0.5,0 1.6,0 2,0 0.4,0 0.5,-0.4 0.4,-0.6 -1.1,-3.9 -4.9,-6.6 -10,-6.6 -5.9,0 -10.8,4.8 -10.8,10.7 0,5.9 4.8,10.7 10.8,10.7 5,0 8.8,-2.6 10,-6.5 0.1,-0.2 0,-0.7 -0.4,-0.7 -0.4,0 -1.4,0 -1.9,0 -0.7,0.3 -0.9,0.6 -0.9,0.8 z"
           id="path93"
           inkscape:connector-curvature="0"
           style="fill:#114470" /><path
           class="st0"
           d="m 106.8,36.2 c 3.3,0 5.7,1.4 7,4 0.7,1.3 1,2.6 1,3.9 v 9.4 c 0,0 -0.1,0.8 0.7,0.8 0.5,0 0.9,0 1.5,0 0.5,0 0.5,-0.8 0.5,-0.8 v -9.4 c 0,-9.6 -7.6,-10.7 -10.8,-10.7 -2,0 -3.8,0.4 -5.3,1.1 -0.6,0.3 -1.2,0.6 -2.4,1.7 0,0 -3,3 -3,7.8 0,1.5 0,7.3 0,9.4 0,0.7 0.6,0.8 0.6,0.8 0,0 0.9,0 1.5,0 0.6,0 0.6,-0.8 0.6,-0.8 V 44 c 0,-1.3 0.3,-2.6 1,-3.9 0.8,-1.4 2.6,-3.9 7.1,-3.9 z"
           id="path95"
           inkscape:connector-curvature="0"
           style="fill:#114470" /><path
           class="st0"
           d="m 202.6,53.9 c 0,-0.7 0,-1.1 0,-1.6 0,-0.5 -0.4,-0.6 -0.6,-0.6 -2,-0.5 -3.1,-1.9 -3.1,-3.8 V 37.3 h 3.5 c 0,0 0.5,0 0.5,-0.5 0,-0.5 0,-1.3 0,-1.8 0,-0.5 -0.5,-0.5 -0.5,-0.5 h -3.5 v -4.7 c 0,0 0.2,-0.9 -0.5,-0.9 -0.5,0 -1.2,0 -1.7,0 -0.7,0 -0.5,0.9 -0.5,0.9 v 18 c 0,3.5 2.3,6 5.9,6.6 0.1,0.1 0.5,0.2 0.5,-0.5 z"
           id="path97"
           inkscape:connector-curvature="0"
           style="fill:#114470" /><path
           class="st0"
           d="m 163.2,50.3 c -1.1,1.1 -3,1.8 -5.6,1.8 -4.2,0 -7.6,-3.4 -7.7,-6.4 0,0 0,-0.2 0.2,-0.2 2,0 16.8,0 17.4,0 0.8,0 0.9,-0.4 0.9,-0.6 0.2,-3.1 -0.7,-5.9 -2.6,-8 -2,-2.2 -4.9,-3.4 -8.1,-3.4 -5.9,0 -10.8,4.8 -10.8,10.7 0,5.9 4.8,10.7 10.8,10.7 4.5,0 8,-1.8 9.3,-4.5 0.1,-0.2 0.3,-0.8 -0.6,-0.8 -0.6,0 -1.1,0 -1.5,0 -0.9,-0.1 -1.1,0.1 -1.7,0.7 z m -13.4,-7.8 c 0.7,-2.7 3.5,-6.3 7.8,-6.3 4.4,0 7.1,3.8 7.9,6.3 0,0 0.1,0.2 -0.2,0.2 -0.4,0 -13.5,0 -15.3,0 -0.3,0.1 -0.2,-0.2 -0.2,-0.2 z"
           id="path99"
           inkscape:connector-curvature="0"
           style="fill:#114470" /><path
           class="st0"
           d="m 64.9,48.3 c -0.9,2.3 -3.4,3.8 -6.9,3.8 -4.4,0 -8,-3.6 -8,-8 0,-4.4 3.6,-8 8,-8 3.4,0 5.9,1.5 6.9,3.7 0.2,0.5 0.2,0.7 0.8,0.7 0.5,0 1.6,0 2,0 0.4,0 0.5,-0.4 0.4,-0.6 C 67,36 63.2,33.3 58.1,33.3 52.2,33.3 47.3,38.1 47.3,44 47.2,50 52,54.9 58,54.9 c 5,0 8.8,-2.6 10,-6.5 0.1,-0.2 0,-0.7 -0.4,-0.7 -0.4,0 -1.4,0 -1.9,0 -0.6,0.1 -0.7,0.4 -0.8,0.6 z"
           id="path101"
           inkscape:connector-curvature="0"
           style="fill:#114470" /><path
           class="st0"
           d="m 132.7,36.2 c 3.3,0 5.7,1.4 7,4 0.7,1.3 1,2.6 1,3.9 v 9.4 c 0,0 -0.1,0.8 0.6,0.8 0.5,0 0.9,0 1.5,0 0.5,0 0.5,-0.8 0.5,-0.8 v -9.4 c 0,-9.6 -7.6,-10.7 -10.8,-10.7 -2,0 -3.8,0.4 -5.3,1.1 -0.6,0.3 -1.2,0.6 -2.4,1.7 0,0 -3,3 -3,7.8 0,1.5 0,7.3 0,9.4 0,0.7 0.6,0.8 0.6,0.8 0,0 0.9,0 1.5,0 0.6,0 0.6,-0.8 0.6,-0.8 V 44 c 0,-1.3 0.3,-2.6 1,-3.9 0.9,-1.4 2.7,-3.9 7.2,-3.9 z"
           id="path103"
           inkscape:connector-curvature="0"
           style="fill:#114470" /></g></g><g
       id="g139"><path
         class="st0"
         d="m 103.7,62.7 h 0.8 v 1.1 c 0.5,-0.6 1.1,-1.2 2.1,-1.2 1.3,0 2.6,1 2.6,2.8 v 0 c 0,1.8 -1.2,2.8 -2.6,2.8 -1,0 -1.6,-0.5 -2.1,-1.2 v 2.7 h -0.8 z m 4.7,2.8 v 0 c 0,-1.3 -0.9,-2.1 -1.9,-2.1 -1,0 -2,0.9 -2,2.1 v 0 c 0,1.2 0.9,2.1 2,2.1 1.1,-0.1 1.9,-0.9 1.9,-2.1 z"
         id="path109"
         inkscape:connector-curvature="0"
         style="fill:#114470" /><path
         class="st0"
         d="m 110.3,65.5 v 0 c 0,-1.6 1.2,-2.9 2.8,-2.9 1.6,0 2.8,1.2 2.8,2.8 v 0 c 0,1.6 -1.2,2.8 -2.8,2.8 -1.6,0.1 -2.8,-1.2 -2.8,-2.7 z m 4.8,0 v 0 c 0,-1.2 -0.9,-2.1 -2,-2.1 -1.1,0 -2,0.9 -2,2.1 v 0 c 0,1.2 0.9,2.1 2,2.1 1.2,0 2,-1 2,-2.1 z"
         id="path111"
         inkscape:connector-curvature="0"
         style="fill:#114470" /><path
         class="st0"
         d="m 116.5,62.7 h 0.9 l 1.4,4.4 1.5,-4.4 h 0.7 l 1.5,4.4 1.4,-4.4 h 0.9 l -1.9,5.5 h -0.7 l -1.5,-4.3 -1.5,4.3 h -0.7 z"
         id="path113"
         inkscape:connector-curvature="0"
         style="fill:#114470" /><path
         class="st0"
         d="m 128.1,67.6 c 0.8,0 1.2,-0.3 1.7,-0.8 l 0.5,0.5 c -0.5,0.6 -1.2,1 -2.3,1 -1.5,0 -2.7,-1.2 -2.7,-2.8 0,-1.6 1.1,-2.8 2.6,-2.8 1.6,0 2.5,1.2 2.5,2.9 0,0.1 0,0.2 0,0.3 h -4.1 c 0,1 0.9,1.7 1.8,1.7 z m 1.5,-2.5 c -0.1,-1 -0.6,-1.8 -1.7,-1.8 -0.9,0 -1.6,0.8 -1.8,1.8 z"
         id="path115"
         inkscape:connector-curvature="0"
         style="fill:#114470" /><path
         class="st0"
         d="m 131.8,62.7 h 0.8 v 1.4 c 0.4,-0.9 1.2,-1.6 2.2,-1.5 v 0.9 0 c -1.2,0 -2.2,0.9 -2.2,2.5 v 2.2 h -0.8 z"
         id="path117"
         inkscape:connector-curvature="0"
         style="fill:#114470" /><path
         class="st0"
         d="m 138.2,67.6 c 0.8,0 1.2,-0.3 1.7,-0.8 l 0.5,0.5 c -0.5,0.6 -1.2,1 -2.3,1 -1.5,0 -2.7,-1.2 -2.7,-2.8 0,-1.6 1.1,-2.8 2.6,-2.8 1.6,0 2.5,1.2 2.5,2.9 0,0.1 0,0.2 0,0.3 h -4.3 c 0.2,1 0.9,1.7 2,1.7 z m 1.5,-2.5 c -0.1,-1 -0.6,-1.8 -1.7,-1.8 -0.9,0 -1.6,0.8 -1.8,1.8 z"
         id="path119"
         inkscape:connector-curvature="0"
         style="fill:#114470" /><path
         class="st0"
         d="m 141.5,65.5 v 0 c 0,-1.8 1.3,-2.8 2.6,-2.8 1,0 1.6,0.5 2.1,1.2 v -3.4 h 0.8 v 7.6 h -0.8 V 67 c -0.5,0.6 -1.1,1.2 -2.1,1.2 -1.3,0.1 -2.6,-0.9 -2.6,-2.7 z m 4.8,0 v 0 c 0,-1.2 -0.9,-2.1 -2,-2.1 -1.1,0 -1.9,0.8 -1.9,2.1 v 0 c 0,1.2 0.9,2.1 1.9,2.1 1,-0.1 2,-0.9 2,-2.1 z"
         id="path121"
         inkscape:connector-curvature="0"
         style="fill:#114470" /><path
         class="st0"
         d="m 152.6,67.1 v 1 h -0.8 v -7.6 h 0.8 v 3.4 c 0.5,-0.6 1.1,-1.2 2.1,-1.2 1.3,0 2.6,1 2.6,2.8 v 0 c 0,1.8 -1.2,2.8 -2.6,2.8 -1.1,0 -1.7,-0.6 -2.1,-1.2 z m 3.8,-1.6 v 0 c 0,-1.3 -0.9,-2.1 -1.9,-2.1 -1,0 -2,0.9 -2,2.1 v 0 c 0,1.2 0.9,2.1 2,2.1 1.1,-0.1 1.9,-0.9 1.9,-2.1 z"
         id="path123"
         inkscape:connector-curvature="0"
         style="fill:#114470" /><path
         class="st0"
         d="m 158,69.6 0.2,-0.6 c 0.2,0.2 0.5,0.2 0.9,0.2 0.5,0 0.8,-0.2 1.1,-1 l -2.5,-5.4 h 0.9 l 2,4.5 1.7,-4.5 h 0.9 l -2.3,5.6 c -0.5,1.1 -1,1.6 -1.8,1.6 -0.4,-0.2 -0.7,-0.2 -1.1,-0.4 z"
         id="path125"
         inkscape:connector-curvature="0"
         style="fill:#114470" /><path
         class="st0"
         d="m 167.3,64.5 v 0 c 0,-2 1.5,-3.8 3.7,-3.8 1.2,0 2,0.4 2.7,1 l -0.5,0.6 c -0.5,-0.5 -1.2,-0.9 -2.3,-0.9 -1.6,0 -2.8,1.4 -2.8,3 v 0 c 0,1.7 1.1,3 2.9,3 0.9,0 1.6,-0.3 2.1,-0.7 V 65 h -2.3 v -0.8 h 3 v 3 c -0.7,0.6 -1.7,1.1 -3,1.1 -2.1,0 -3.5,-1.7 -3.5,-3.8 z"
         id="path127"
         inkscape:connector-curvature="0"
         style="fill:#114470" /><path
         class="st0"
         d="m 175.3,66.6 v 0 c 0,-1.2 0.9,-1.8 2.3,-1.8 0.7,0 1.2,0.1 1.6,0.2 v -0.2 c 0,-0.9 -0.6,-1.5 -1.6,-1.5 -0.6,0 -1.2,0.2 -1.6,0.4 l -0.2,-0.6 c 0.6,-0.2 1.2,-0.5 2,-0.5 0.8,0 1.3,0.2 1.7,0.6 0.4,0.4 0.5,0.9 0.5,1.6 v 3.3 h -0.8 v -0.8 c -0.4,0.5 -1,0.9 -2,0.9 -0.9,0.1 -1.9,-0.5 -1.9,-1.6 z m 4,-0.4 v -0.5 c -0.4,-0.1 -0.9,-0.2 -1.6,-0.2 -1,0 -1.6,0.5 -1.6,1.1 v 0 c 0,0.7 0.6,1.1 1.3,1.1 1.1,-0.1 1.9,-0.7 1.9,-1.5 z"
         id="path129"
         inkscape:connector-curvature="0"
         style="fill:#114470" /><path
         class="st0"
         d="m 181.7,62.7 h 0.8 v 1.4 c 0.4,-0.9 1.2,-1.6 2.2,-1.5 v 0.9 h -0.1 c -1.2,0 -2.2,0.9 -2.2,2.5 v 2.2 h -0.8 z"
         id="path131"
         inkscape:connector-curvature="0"
         style="fill:#114470" /><path
         class="st0"
         d="m 185.8,62.7 h 0.8 v 0.9 c 0.4,-0.5 0.9,-1 1.7,-1 0.9,0 1.5,0.5 1.7,1.1 0.4,-0.6 0.9,-1.1 1.9,-1.1 1.2,0 2,0.9 2,2.2 v 3.4 h -0.8 V 65 c 0,-1 -0.5,-1.6 -1.4,-1.6 -0.8,0 -1.5,0.6 -1.5,1.7 v 3.1 h -0.8 V 65 c 0,-1 -0.5,-1.6 -1.4,-1.6 -0.9,0 -1.5,0.7 -1.5,1.7 v 3.1 h -0.8 v -5.5 z"
         id="path133"
         inkscape:connector-curvature="0"
         style="fill:#114470" /><path
         class="st0"
         d="m 195.7,60.6 h 0.9 v 0.9 h -0.9 z m 0.1,2.1 h 0.8 v 5.5 h -0.8 z"
         id="path135"
         inkscape:connector-curvature="0"
         style="fill:#114470" /><path
         class="st0"
         d="m 198.4,62.7 h 0.8 v 0.9 c 0.4,-0.6 0.9,-1.1 1.9,-1.1 1.3,0 2.1,0.9 2.1,2.2 v 3.4 h -0.8 v -3.2 c 0,-1 -0.5,-1.6 -1.5,-1.6 -0.9,0 -1.6,0.7 -1.6,1.7 v 3.1 h -0.8 z"
         id="path137"
         inkscape:connector-curvature="0"
         style="fill:#114470" /></g></g></svg>